<svg xmlns="http://www.w3.org/2000/svg" version="1.1" xmlns:xlink="http://www.w3.org/1999/xlink" xmlns:svgjs="http://svgjs.dev/svgjs" viewBox="0 0 800 800"><defs><linearGradient x1="50%" y1="0%" x2="50%" y2="100%" id="ccchaos-grad"><stop stop-color="#0bbead" stop-opacity="1" offset="0%"></stop><stop stop-color="#f57f17" stop-opacity="1" offset="100%"></stop></linearGradient></defs><g stroke-width="2" stroke="url(#ccchaos-grad)" fill="none" stroke-linecap="round"><path d="M422.23 104.09C432.63 101.3 442.97 100.36 453.2 101.35 463.4 103.78 473.42 107.92 483.15 113.45 492.72 119.63 501.85 126.42 510.36 133.4 518.52 139.86 525.87 145.85 532.23 151.17 545.46 160.38 554.8 167.63 556.86 170.59 559.55 173.17 563.41 176.75 568.91 181.37 576.64 186.72 586.49 193.14 598.5 200.54 612.39 208.63 627.63 217.54 643.41 227.09 658.79 237.1 672.68 247.54 683.92 258.26 691.85 269.18 695.58 280.23 694.75 291.29 690.24 302.39 682.24 313.43 671.97 324.36 661.74 335.28 652.6 346.07 646.25 356.74 644.52 367.38 647.58 377.91 655.44 388.32 667.57 398.73 682.09 409.03 696.88 419.18 710 429.34 718.82 439.1 722.09 448.42 719.86 457.71 711.98 466.5 699.63 474.74 684.69 482.88 668.73 490.39 653.64 497.22 641.11 503.88 632.03 509.81 626.87 514.99 627.15 522.22 642.66 533.69 651.03 538.71 654.78 542.54 655.75 546.63 653.66 551.24 648.91 556.98 641.21 563.69 631.06 571.57 619.09 580.91 605.72 591.53 591.61 603.35 577.15 616.22 562.87 629.74 549.14 643.42 536.02 656.8 523.79 669.2 512.47 679.92 501.98 688.62 492.28 694.6 483.21 697.45 474.74 697.53 466.61 694.53 458.64 688.79 450.96 681.61 443.2 673.23 435.22 664.63 427.33 657.48 419.1 652.12 410.48 649.37 401.86 650.19 392.8 654.22 383.33 661.2 373.85 670.85 364.19 681.48 354.44 691.88 344.75 701.5 335.02 708.68 325.37 712.66 315.85 713.52 306.51 710.57 297.46 704.11 288.65 694.94 280.25 683.39 272.37 670.37 264.81 656.87 257.84 643.51 251.54 631.03 245.51 620.11 240.1 610.93 235.27 603.63 228.28 596.77 215.01 592.28 207.81 592.32 202.17 592.74 196.08 592.57 189.51 591.51 182.18 590 174.51 587.27 166.68 583.29 158.65 578.56 150.96 572.61 143.91 565.58 137.47 557.9 132.15 549.34 128.14 540.1 125.1 530.46 123.34 520.37 122.75 510 122.59 499.44 123 488.76 123.66 478.08 123.72 467.34 123.43 456.69 122.64 446.2 120.8 435.71 118.51 425.39 116.05 415.29 113.26 405.19 111.11 395.53 109.93 386.29 109.53 377.01 110.58 368.11 113.08 359.54 116.53 350.88 121.15 342.46 126.6 334.25 132.19 325.84 137.95 317.52 143.57 309.22 148.43 300.6 152.78 291.88 156.6 282.99 159.51 273.71 162.1 264.2 164.57 254.43 166.72 244.31 169.26 233.99 172.43 223.55 176 213.01 180.56 202.59 186.14 192.47 192.49 182.69 199.88 173.58 208.19 165.36 217.14 157.97 226.77 151.77 236.9 146.91 247.33 143.06 258 140.53 268.76 139.27 279.5 138.6 290.2 138.75 300.79 139.44 311.21 139.8 321.51 140.03 331.71 139.82 341.73 138.43 351.71 136.19 361.69 133.06 371.56 128.68 381.51 123.69 391.58 118.43 401.61 112.89 411.83 107.95 422.22 104.09" stroke-dasharray="5 1" transform="rotate(0, 400, 400)" opacity="0.05"></path><path d="M421.57 114.8C431.55 112.02 441.28 110.99 450.71 111.8 460.1 113.99 469.1 117.85 477.64 123.08 486.02 129.01 493.8 135.64 500.85 142.57 507.62 149.12 513.54 155.34 518.53 161.01 529.32 171.67 540.19 180.02 544.87 182.51 549.67 184.51 555.84 187.3 563.7 190.97 573.51 195.22 585.11 200.45 598.31 206.63 612.68 213.44 627.63 221.1 642.35 229.49 655.99 238.37 667.62 247.79 676.29 257.61 681.67 267.72 683.09 278.07 680.48 288.54 674.88 299.14 666.56 309.76 656.71 320.33 647.47 330.94 639.66 341.45 634.72 351.83 634.16 362.22 637.97 372.47 646.05 382.53 657.87 392.61 671.72 402.5 685.71 412.16 698.19 421.83 706.77 431.02 710.34 439.7 708.93 448.36 702.26 456.47 691.29 463.99 677.59 471.45 662.49 478.28 647.66 484.47 634.68 490.59 624.46 496.06 617.61 500.94 614.75 508.02 625.48 520.61 633.52 526.95 638.13 531.89 640.71 537.29 640.83 543.36 638.76 550.53 633.94 558.67 626.63 567.89 617.38 578.3 606.35 589.73 594.09 602 581 614.88 567.53 627.98 554.1 640.82 540.81 652.98 528.02 663.86 515.89 672.86 504.32 679.8 493.44 684.09 483.22 685.46 473.52 684.4 464.29 680.65 455.4 674.62 446.83 667.55 438.41 659.62 430 651.74 421.73 645.39 413.35 640.79 404.79 638.63 396.25 639.76 387.48 643.8 378.48 650.49 369.47 659.62 360.46 669.66 351.49 679.55 342.56 688.85 333.73 696.03 325.1 700.37 316.58 701.97 308.34 700.08 300.47 694.89 292.78 687.08 285.55 676.83 278.84 664.9 272.33 652.18 266.37 639.2 260.97 626.65 255.68 615.19 250.85 605.09 246.4 596.56 241.8 589.92 237.36 584.89 232.94 581.25 228 579.16 222.83 577.89 217.31 577.07 211.03 576.9 204.3 576.53 197.16 575.65 189.42 574.66 181.49 572.76 173.58 569.85 165.69 566.44 158.31 561.94 151.72 556.41 145.86 550.33 141.18 543.35 137.81 535.61 135.37 527.46 134.13 518.74 133.93 509.58 134.05 500.21 134.62 490.57 135.32 480.76 135.38 470.88 135.02 460.93 134.12 451 132.18 441.05 129.8 431.16 127.22 421.36 124.32 411.57 122.02 402.09 120.65 392.91 120.03 383.7 120.83 374.75 123.06 366.03 126.27 357.21 130.68 348.53 136 339.96 141.58 331.2 147.44 322.43 153.26 313.62 158.45 304.54 163.2 295.32 167.41 285.92 170.71 276.24 173.57 266.36 176.18 256.31 178.28 246.07 180.57 235.76 183.24 225.5 186.11 215.32 189.76 205.43 194.29 196.01 199.46 187.09 205.63 178.95 212.73 171.79 220.49 165.49 229.06 160.37 238.25 156.53 247.88 153.58 257.92 151.8 268.22 151.1 278.68 150.8 289.22 151.12 299.76 151.78 310.27 151.99 320.71 151.94 331.05 151.38 341.32 149.65 351.49 147.1 361.59 143.73 371.63 139.2 381.64 134.16 391.62 128.92 401.6 123.46 411.58 118.6 421.56 114.81" stroke-dasharray="5 7" transform="rotate(4.04, 400, 400)" opacity="0.09"></path><path d="M416.8 125.52C426.28 122.74 435.35 121.64 443.98 122.27 452.56 124.22 460.63 127.78 468.11 132.7 475.47 138.36 482.17 144.77 488.13 151.59 493.9 158.17 498.9 164.56 503.13 170.51 508.97 177.74 518.18 187.48 522.67 190.5 526.5 191.83 530.97 193.22 536.4 194.86 543.28 196.49 551.55 198.71 561.35 201.63 572.67 204.95 585.32 209.13 598.97 214.17 613.08 219.76 627.09 226.18 640.21 233.35 651.76 241 660.96 249.26 667.09 258.01 670.12 267.1 669.56 276.53 665.54 286.18 659.23 296.03 650.9 305.98 641.71 315.95 633.56 326.01 627.1 336.03 623.51 345.94 624 355.89 628.46 365.7 636.67 375.31 648.15 384.94 661.32 394.37 674.54 403.53 686.38 412.69 694.71 421.35 698.52 429.49 697.86 437.61 692.32 445.19 682.68 452.2 670.27 459.19 656.15 465.61 641.8 471.49 628.66 477.36 617.61 482.74 609.37 487.68 603.62 495.15 609.01 509.77 615.93 517.73 620.71 523.86 624.22 530.56 625.91 537.99 625.99 546.4 623.68 555.7 619.06 565.9 612.58 576.99 604.14 588.78 594.18 601.06 583.08 613.54 571.15 625.86 558.78 637.55 546.15 648.29 533.61 657.54 521.38 664.8 509.4 670.05 497.92 672.79 486.99 672.86 476.43 670.85 466.36 666.56 456.73 660.39 447.37 653.54 438.3 646.15 429.45 639.01 420.73 633.43 412.1 629.55 403.5 627.94 394.95 629.35 386.35 633.37 377.73 639.78 369.1 648.4 360.63 657.87 352.36 667.25 344.12 676.2 336.11 683.32 328.39 687.95 320.75 690.18 313.46 689.25 306.59 685.25 299.82 678.76 293.51 669.84 287.68 659.1 281.93 647.32 276.63 634.95 271.76 622.62 266.82 610.94 262.18 600.23 257.74 590.75 252.97 582.86 248.2 576.41 243.28 571.3 237.77 567.7 231.94 565.07 225.73 563.11 218.82 562.02 211.53 561.04 203.95 559.89 195.95 558.91 187.94 557.35 180.15 555.06 172.57 552.51 165.65 549.05 159.66 544.7 154.47 539.94 150.48 534.31 147.76 527.9 145.91 521.15 145.15 513.74 145.3 505.79 145.64 497.63 146.32 489.06 147.04 480.19 147.04 471.23 146.59 462.07 145.58 452.77 143.54 443.45 141.07 434.04 138.39 424.6 135.39 415.15 132.96 405.87 131.41 396.78 130.59 387.65 131.12 378.67 133.06 369.79 135.98 360.84 140.14 351.93 145.27 343.03 150.77 333.98 156.66 324.87 162.64 315.66 168.12 306.26 173.24 296.72 177.87 287.03 181.61 277.17 184.87 267.19 187.75 257.15 190 247.07 192.23 237.07 194.64 227.27 197.01 217.7 199.96 208.58 203.61 200.07 207.71 192.14 212.71 185.08 218.59 179.04 225.08 173.82 232.41 169.74 240.45 166.84 249 164.68 258.09 163.53 267.57 163.25 277.35 163.2 287.34 163.57 297.45 164.11 307.67 164.09 317.9 163.73 328.06 162.81 338.25 160.74 348.35 157.9 358.33 154.29 368.31 149.65 378.18 144.57 387.93 139.37 397.68 134.01 407.31 129.25 416.79 125.52" stroke-dasharray="1 7" transform="rotate(8.08, 400, 400)" opacity="0.13"></path><path d="M408.82 136.23C417.74 133.48 426.17 132.3 434.08 132.76 441.94 134.47 449.24 137.73 455.94 142.32 462.55 147.67 468.53 153.83 473.86 160.48 479.11 167.03 483.76 173.51 487.85 179.69 493.93 187.5 505.56 198.78 512.25 202.5 517.77 204.18 524.12 205.77 531.52 207.44 540.21 208.91 550.13 210.79 561.26 213.19 573.43 215.8 586.4 219.12 599.75 223.19 612.95 227.68 625.47 232.95 636.59 238.93 645.86 245.35 652.62 252.41 656.36 260.01 657.3 267.96 655.12 276.32 650.08 284.99 643.41 293.88 635.38 302.97 627.02 312.16 620.04 321.48 614.92 330.82 612.59 340.1 614.04 349.44 619.04 358.68 627.31 367.75 638.41 376.85 650.91 385.76 663.37 394.42 674.58 403.08 682.64 411.27 686.65 418.98 686.64 426.67 682.17 433.88 673.81 440.6 662.7 447.32 649.67 453.59 635.98 459.43 622.94 465.34 611.39 470.91 602.06 476.22 595.61 481.75 591.92 487.18 590.76 492.64 592.15 498.55 595.05 504.71 598.74 511.27 603.09 518.53 606.85 526.4 609.45 534.95 611.03 544.32 610.71 554.42 608.39 565.18 604.48 576.52 598.63 588.25 591.13 600.11 582.38 611.84 572.47 623.07 561.77 633.39 550.5 642.58 538.92 650.14 527.31 655.71 515.66 659.39 504.24 660.74 493.17 659.71 482.29 656.96 471.82 652.29 461.76 646.14 451.9 639.62 442.39 632.82 433.2 626.42 424.13 621.6 415.29 618.41 406.64 617.31 398.03 618.95 389.56 622.94 381.22 629.06 372.88 637.2 364.85 646.1 357.14 654.97 349.44 663.55 342.08 670.56 335.09 675.4 328.12 678.16 321.55 678.09 315.39 675.19 309.26 669.97 303.54 662.37 298.23 652.88 292.88 642.18 287.85 630.62 283.12 618.75 278.17 607.17 273.37 596.16 268.6 586.06 263.4 577.19 258.06 569.54 252.49 563.11 246.32 558.08 239.8 554.05 232.93 550.82 225.5 548.57 217.8 546.68 209.95 544.9 201.9 543.52 194.02 541.85 186.53 539.72 179.44 537.55 173.13 534.71 167.83 531.13 161.73 525.02 156.57 508.68 156.86 498.7 157.37 491.66 158.11 484.12 158.78 476.18 158.7 468.14 158.14 459.77 157.01 451.14 154.88 442.48 152.32 433.61 149.56 424.56 146.48 415.5 143.94 406.48 142.23 397.52 141.2 388.54 141.47 379.57 143.1 370.62 145.71 361.62 149.57 352.57 154.45 343.47 159.8 334.27 165.65 324.98 171.7 315.57 177.41 306.06 182.86 296.43 187.9 286.72 192.11 276.95 195.83 267.15 199.11 257.42 201.66 247.79 204.04 238.36 206.41 229.27 208.55 220.55 211.03 212.37 214.02 204.91 217.26 198.07 221.24 192.13 225.99 187.2 231.24 183.03 237.3 179.91 244.09 177.83 251.38 176.33 259.29 175.66 267.7 175.68 276.48 175.74 285.59 176.05 294.93 176.4 304.48 176.09 314.13 175.38 323.8 174.08 333.56 171.68 343.27 168.56 352.88 164.75 362.52 160.02 372.04 154.94 381.38 149.79 390.73 144.54 399.9 139.89 408.81 136.23" stroke-dasharray="8 3" transform="rotate(12.12, 400, 400)" opacity="0.16"></path><path d="M399.17 146.94C407.5 144.22 415.35 142.97 422.67 143.27 429.97 144.74 436.74 147.69 442.96 151.94 449.15 156.96 454.81 162.83 459.97 169.26 465.17 175.71 469.98 182.21 474.47 188.53 479.19 194.22 483.83 199.45 488.55 204.13 493.82 207.94 499.48 211.23 505.74 214.08 512.9 216.21 520.93 218.14 529.93 220.01 539.94 221.54 550.89 223.3 562.66 225.4 574.96 227.54 587.53 230.24 599.93 233.54 611.69 237.13 622.31 241.39 631.22 246.31 638.15 251.59 642.57 257.5 644.18 263.96 643.39 270.74 639.97 277.98 634.3 285.59 627.6 293.43 620.09 301.54 612.72 309.83 606.96 318.26 603.13 326.79 601.97 335.34 604.26 343.95 609.69 352.53 617.97 361.01 628.65 369.51 640.49 377.87 652.2 386.05 662.79 394.23 670.56 402.02 674.71 409.4 675.29 416.77 671.8 423.76 664.66 430.37 654.85 437.01 642.97 443.33 630.11 449.36 617.42 455.51 605.66 461.47 595.58 467.34 587.83 473.47 582.49 479.66 579.48 486.02 578.95 492.82 580.13 499.98 582.45 507.57 585.87 515.78 589.27 524.55 592.11 533.91 594.52 543.86 595.55 554.35 595 565.25 593.22 576.42 589.7 587.68 584.57 598.75 578.24 609.42 570.59 619.34 561.91 628.14 552.49 635.72 542.44 641.63 532.05 645.6 521.37 647.85 510.64 648.01 500.03 646.09 489.42 642.79 479.06 637.93 469.01 631.93 459.06 625.83 449.43 619.65 440.14 614 430.93 609.91 422.01 607.36 413.37 606.72 404.77 608.57 396.41 612.52 388.29 618.35 380.17 626 372.46 634.36 365.15 642.71 357.83 650.9 350.91 657.76 344.39 662.74 337.85 665.94 331.71 666.61 325.95 664.72 320.13 660.7 314.65 654.38 309.49 646.17 304.18 636.64 299.08 626.05 294.13 614.88 288.87 603.66 283.63 592.67 278.3 582.25 272.51 572.74 266.5 564.18 260.22 556.65 253.41 550.34 246.29 544.99 238.9 540.49 231.11 536.98 223.2 533.99 215.32 531.32 207.43 529.2 199.9 527.04 192.91 524.67 183.66 521.13 171.37 511.36 168.66 504.84 167.86 500.12 167.9 494.76 168.58 488.81 169.21 482.71 169.95 476.08 170.55 468.97 170.36 461.78 169.67 454.17 168.41 446.2 166.19 438.2 163.56 429.87 160.73 421.25 157.59 412.63 154.96 403.93 153.1 395.17 151.87 386.41 151.88 377.57 153.19 368.67 155.47 359.74 158.99 350.71 163.56 341.6 168.68 332.43 174.41 323.16 180.46 313.81 186.31 304.43 192.02 294.98 197.43 285.53 202.11 276.13 206.32 266.8 210.07 257.65 213.07 248.71 215.76 240.09 218.3 231.93 220.44 224.2 222.73 217.1 225.32 210.76 229.55 202.62 241.56 191.96 249.56 189.43 255.57 188.44 262.22 188.1 269.41 188.28 276.98 188.33 284.99 188.5 293.31 188.57 301.89 187.94 310.67 186.85 319.55 185.18 328.58 182.47 337.63 179.09 346.62 175.11 355.68 170.32 364.63 165.25 373.41 160.17 382.22 155.05 390.82 150.53 399.16 146.95" stroke-dasharray="10 5" transform="rotate(16.16, 400, 400)" opacity="0.20"></path><path d="M389.67 157.66C397.45 154.97 404.8 153.66 411.71 153.81 418.61 155.04 425.08 157.68 431.13 161.58 437.2 166.25 442.9 171.8 448.3 177.96 453.81 184.24 459.15 190.68 464.4 197.07 469.98 202.96 475.69 208.51 481.69 213.6 488.26 217.91 495.35 221.74 503.08 225.12 511.59 227.78 520.86 230.15 530.91 232.36 541.62 234.13 552.93 235.97 564.63 238 576.38 239.92 587.93 242.23 598.85 245.01 608.79 247.92 617.29 251.4 623.91 255.45 629.75 262.19 626.43 278.8 618.36 288.45 611.91 295.22 605.14 302.32 598.85 309.67 594.32 317.15 591.73 324.8 591.64 332.56 594.66 340.39 600.42 348.26 608.63 356.11 618.87 363.98 630.04 371.81 641.03 379.54 651.01 387.27 658.47 394.71 662.72 401.86 663.81 409.01 661.21 415.9 655.24 422.53 646.69 429.22 636.02 435.72 624.11 442.08 611.99 448.58 600.31 455.04 589.79 461.53 581.08 468.3 574.35 475.23 569.7 482.41 567.33 490 566.71 497.97 567.45 506.36 569.56 515.23 572.11 524.56 574.6 534.34 577.17 544.48 578.89 554.94 579.48 565.56 579.27 576.18 577.62 586.62 574.53 596.61 570.43 606 565 614.45 558.44 621.67 551.09 627.64 542.91 631.99 534.14 634.5 524.93 635.51 515.41 634.67 505.76 632.07 495.97 628.41 486.22 623.52 476.63 617.78 467.04 612.17 457.66 606.66 448.56 601.75 439.49 598.36 430.7 596.41 422.2 596.19 413.72 598.21 405.51 602.09 397.59 607.63 389.66 614.82 382.17 622.64 375.11 630.49 368.03 638.27 361.34 644.92 355.05 649.97 348.69 653.52 342.69 654.83 337.01 653.84 331.21 650.93 325.67 645.85 320.33 638.91 314.78 630.61 309.33 621.1 303.91 610.81 298.16 600.21 292.31 589.53 286.32 579.11 279.89 569.27 273.23 560.11 266.32 551.77 258.98 544.41 251.44 537.92 243.73 532.23 235.83 527.48 227.95 523.33 220.28 519.62 212.79 516.55 205.79 513.64 199.48 510.73 191.4 506.69 181.43 497.12 179.63 491.18 179.45 484.61 181.49 468.59 182.31 459.22 182 452.74 181.16 445.81 179.77 438.44 177.48 431.06 174.78 423.28 171.9 415.12 168.72 406.97 166.01 398.65 164.02 390.19 162.61 381.74 162.36 373.16 163.35 364.46 165.27 355.75 168.42 346.93 172.64 338.01 177.47 329.09 182.99 320.09 188.94 311.05 194.84 302.05 200.73 293.05 206.43 284.13 211.53 275.35 216.23 266.74 220.49 258.4 224 250.35 227.15 242.72 230.04 235.61 233.58 225.98 240.88 211.25 245.36 206.44 250.62 203.23 264.6 200.85 273.3 200.97 279.62 200.92 286.41 200.85 293.59 200.6 301.02 199.6 308.74 198.13 316.65 196.09 324.73 193.08 332.91 189.48 341.1 185.36 349.38 180.53 357.62 175.5 365.74 170.53 373.89 165.54 381.88 161.15 389.66 157.66" stroke-dasharray="0 2" transform="rotate(20.200000000000003, 400, 400)" opacity="0.24"></path><path d="M382.14 168.37C389.41 165.72 396.38 164.37 403.04 164.36 409.7 165.37 416.08 167.71 422.21 171.24 428.39 175.55 434.38 180.74 440.26 186.58 446.31 192.64 452.37 198.95 458.54 205.31 465.05 211.32 471.85 217.1 479.03 222.52 486.72 227.28 494.95 231.6 503.76 235.5 513.12 238.71 523.06 241.6 533.51 244.24 544.27 246.39 555.25 248.49 566.21 250.65 576.84 252.58 586.89 254.75 595.97 257.24 607.04 261.2 617.52 271.64 616.14 278.21 613.03 282.93 608.32 288.13 602.44 293.74 596.51 299.51 590.62 305.65 585.48 312.1 582.15 318.65 580.71 325.45 581.58 332.42 585.21 339.45 591.22 346.62 599.28 353.86 609.07 361.12 619.58 368.42 629.86 375.74 639.25 383.06 646.39 390.21 650.69 397.2 652.21 404.19 650.42 411.05 645.53 417.79 638.21 424.59 628.76 431.33 617.91 438.05 606.53 444.92 595.18 451.86 584.53 458.93 575.19 466.25 567.42 473.8 561.38 481.63 557.35 489.78 555 498.29 554.07 507.15 554.63 516.33 555.96 525.85 557.63 535.64 559.77 545.58 561.54 555.61 562.63 565.57 563.34 575.31 562.98 584.66 561.46 593.35 559.17 601.32 555.68 608.24 551.09 613.88 545.78 618.34 539.54 621.24 532.56 622.49 525.09 622.45 517.11 620.84 508.78 617.75 500.22 613.91 491.49 609.13 482.73 603.77 473.9 598.7 465.13 593.86 456.51 589.68 447.89 586.94 439.45 585.54 431.24 585.7 423.05 587.86 415.07 591.66 407.34 596.92 399.62 603.65 392.3 610.95 385.36 618.29 378.4 625.65 371.79 632.07 365.5 637.12 359.14 640.92 353.06 642.77 347.21 642.58 341.22 640.67 335.38 636.76 329.65 631.05 323.69 624.01 317.73 615.66 311.73 606.39 305.41 596.6 298.95 586.48 292.32 576.36 285.34 566.51 278.15 557.09 270.79 548.23 263.15 540.13 255.42 532.73 247.67 526.05 239.9 520.18 232.33 514.93 225.1 510.17 218.21 506.07 211.93 502.25 206.42 498.58 199.61 493.64 191.94 483.32 190.96 477.48 191.26 471.26 193.44 456.5 194.07 447.9 193.6 441.98 192.62 435.59 191.1 428.76 188.73 421.92 185.99 414.65 183.07 406.98 179.87 399.31 177.1 391.42 175 383.37 173.41 375.32 172.92 367.12 173.59 358.78 175.15 350.46 177.89 342.03 181.71 333.53 186.19 325.06 191.43 316.56 197.18 308.07 203.03 299.67 208.99 291.36 214.89 283.2 220.33 275.24 225.46 267.53 230.21 260.18 234.28 253.15 237.96 246.6 241.31 240.62 245.4 232.64 252.84 221 256.85 217.44 261.21 215.16 272.54 213.62 279.64 213.66 284.79 213.41 290.42 213.03 296.47 212.41 302.73 211.03 309.34 209.18 316.21 206.8 323.23 203.53 330.44 199.73 337.76 195.51 345.16 190.67 352.6 185.71 360.02 180.85 367.47 176.02 374.86 171.77 382.13 168.38" stroke-dasharray="10 9" transform="rotate(24.24, 400, 400)" opacity="0.28"></path><path d="M378.01 179.09C384.84 176.48 391.53 175.09 398.06 174.94 404.61 175.73 411.03 177.77 417.37 180.94 423.79 184.86 430.19 189.67 436.64 195.16 443.26 200.93 450.05 207.04 457.06 213.29 464.38 219.33 472.04 225.24 480.1 230.9 488.55 236.02 497.44 240.78 506.78 245.16 516.43 248.91 526.41 252.33 536.6 255.47 546.78 258.1 556.84 260.59 566.53 263.03 575.62 265.16 583.86 267.41 590.92 269.85 601.35 278.04 594.65 294.38 586.71 301.4 581.48 306.33 576.59 311.63 572.62 317.27 570.45 322.98 570.07 328.99 571.77 335.24 575.9 341.54 582.06 348.04 589.94 354.71 599.25 361.4 609.1 368.22 618.69 375.17 627.49 382.11 634.3 389.01 638.6 395.87 640.49 402.74 639.42 409.59 635.53 416.43 629.4 423.34 621.16 430.3 611.42 437.34 600.94 444.5 590.15 451.82 579.65 459.32 570.02 467.01 561.53 474.95 554.42 483.16 548.98 491.59 545.05 500.31 542.5 509.27 541.44 518.41 541.33 527.73 541.82 537.13 543.07 546.51 544.35 555.78 545.35 564.77 546.34 573.39 546.63 581.45 546.09 588.72 544.08 597.91 534.33 608.64 526.85 609.63 521.13 608.77 514.79 606.59 507.95 603.22 500.83 599.36 493.37 594.81 485.71 589.9 477.92 585.42 470.04 581.26 462.15 577.78 454.22 575.67 446.35 574.76 438.59 575.26 430.82 577.53 423.19 581.23 415.7 586.21 408.22 592.49 401.05 599.28 394.18 606.12 387.28 613.05 380.65 619.2 374.25 624.19 367.77 628.16 361.48 630.45 355.32 630.94 349.03 629.93 342.8 627.09 336.59 622.56 330.17 616.75 323.7 609.62 317.14 601.45 310.31 592.64 303.35 583.3 296.25 573.72 288.9 564.18 281.42 554.8 273.86 545.76 266.19 537.23 258.55 529.22 251.05 521.79 243.68 515.03 236.65 508.82 230.09 503.11 223.98 498 218.55 493.25 213.93 488.75 208.42 482.68 202.92 470.93 202.64 464.8 203.28 458.53 205.41 444.29 205.8 436.18 205.17 430.63 204.03 424.67 202.4 418.29 199.96 411.9 197.17 405.1 194.24 397.91 191.03 390.72 188.22 383.32 186.03 375.74 184.3 368.18 183.57 360.47 183.93 352.65 185.11 344.86 187.45 336.99 190.83 329.09 194.9 321.25 199.77 313.43 205.25 305.69 210.93 298.09 216.85 290.63 222.83 283.4 228.51 276.39 233.98 269.71 239.16 263.43 243.75 257.47 247.98 252.02 251.88 247.14 260.85 236.27 272.9 227.63 277.47 226.93 282.49 226.46 294.89 225.35 302.26 223.97 307.47 222.21 313.04 220 318.93 217.29 324.93 213.79 331.2 209.85 337.65 205.55 344.17 200.74 350.83 195.87 357.58 191.14 364.34 186.47 371.16 182.38 378 179.09" stroke-dasharray="10 6" transform="rotate(28.28, 400, 400)" opacity="0.32"></path><path d="M378.07 189.8C384.54 187.26 391.02 185.82 397.49 185.55 403.98 186.13 410.5 187.87 417.07 190.69 423.73 194.22 430.5 198.62 437.43 203.72 444.52 209.15 451.85 214.99 459.44 221.06 467.27 227.02 475.42 232.96 483.91 238.76 492.62 244.14 501.65 249.24 510.91 254.04 520.25 258.28 529.68 262.21 539.03 265.86 548.11 269 556.79 271.96 564.85 274.81 581.91 282.3 589.02 294.52 584.78 299.53 580.9 303 576.28 306.86 571.34 311.08 565.05 317.67 559.51 332.66 562.21 340.97 566.72 346.63 572.95 352.55 580.59 358.72 589.39 364.89 598.6 371.28 607.52 377.89 615.74 384.5 622.21 391.17 626.48 397.89 628.67 404.63 628.23 411.44 625.26 418.34 620.23 425.3 613.18 432.38 604.6 439.6 595.11 446.92 585.06 454.42 574.97 462.13 565.36 469.96 556.49 478.02 548.65 486.29 542.12 494.68 536.87 503.25 532.86 511.96 530.23 520.7 528.6 529.46 527.74 538.15 527.78 546.66 528.14 554.9 528.56 562.71 529.44 573.39 528.58 589.56 526.2 594.33 522.46 596.46 510.59 593.32 502.78 588.58 497.11 584.84 491 580.64 484.54 576.24 477.93 572.37 471.07 568.88 464.07 566.07 457 564.52 449.84 564.07 442.65 564.86 435.45 567.21 428.25 570.8 421.07 575.49 413.89 581.35 406.9 587.64 400.09 593.99 393.27 600.48 386.59 606.33 380.05 611.2 373.44 615.27 366.92 617.9 360.45 618.95 353.86 618.73 347.27 616.86 340.64 613.43 333.85 608.8 326.98 602.88 320.02 595.87 312.88 588.15 305.64 579.75 298.31 570.93 290.86 561.95 283.38 552.91 275.93 544 268.52 535.37 261.27 527.08 254.28 519.2 247.55 511.81 241.27 504.89 235.56 498.41 230.33 492.44 225.83 486.84 222.13 481.55 217.92 474.3 214.36 460.77 214.62 454.08 215.48 447.45 217.38 433.14 217.49 425.28 216.68 419.95 215.4 414.27 213.64 408.25 211.15 402.22 208.35 395.84 205.41 389.12 202.22 382.39 199.39 375.5 197.12 368.46 195.26 361.45 194.31 354.32 194.37 347.13 195.19 339.97 197.1 332.79 200.03 325.63 203.64 318.56 208.09 311.56 213.19 304.7 218.6 297.99 224.36 291.49 230.29 285.27 236.07 279.28 241.77 273.64 247.28 268.44 254.69 261.33 267.17 250.25 272.38 246.4 280.92 241.99 293.89 239.24 299 238.65 304.52 237.21 317.52 231.83 324.96 227.56 330.09 223.87 335.53 219.82 341.23 215.49 346.97 210.74 352.93 205.98 359.09 201.4 365.25 196.91 371.58 192.98 378.06 189.8" stroke-dasharray="8 1" transform="rotate(32.32, 400, 400)" opacity="0.35"></path><path d="M382.3 200.51C388.48 198.03 394.78 196.58 401.19 196.18 407.62 196.57 414.19 198.02 420.91 200.48 427.7 203.62 434.68 207.6 441.87 212.29 449.18 217.34 456.74 222.84 464.54 228.64 472.48 234.44 480.67 240.31 489.07 246.14 497.53 251.67 506.14 257.01 514.78 262.11 523.3 266.77 531.67 271.15 539.73 275.28 547.36 278.94 554.39 282.4 560.63 285.7 572.23 294.21 573.34 306.87 568.55 311.62 562.72 316.59 551.66 328.1 548.57 334.68 548.47 339.19 549.87 344.03 552.87 349.17 557.66 354.32 563.87 359.77 571.22 365.5 579.52 371.24 588.08 377.26 596.35 383.56 604 389.85 610.12 396.28 614.32 402.84 616.74 409.41 616.85 416.12 614.7 422.97 610.7 429.86 604.8 436.92 597.38 444.14 588.97 451.42 579.81 458.89 570.34 466.53 561.03 474.24 552.1 482.12 543.86 490.12 536.59 498.16 530.32 506.27 525.09 514.39 521.07 522.43 518 530.35 515.74 538.06 514.43 545.49 513.62 552.53 513.1 559.04 504.85 578.61 486.65 568.53 478.89 562.81 473.43 559.55 467.63 556.72 461.54 554.53 455.38 553.51 449.01 553.47 442.47 554.5 435.91 556.9 429.22 560.37 422.42 564.78 415.62 570.21 408.87 576.02 402.19 581.9 395.5 587.94 388.84 593.46 382.22 598.17 375.56 602.26 368.9 605.12 362.22 606.64 355.46 607.08 348.65 606.06 341.78 603.64 334.81 600.13 327.77 595.37 320.65 589.54 313.46 582.96 306.23 575.61 298.98 567.72 291.74 559.51 284.57 551.08 277.54 542.57 270.67 534.16 264.06 525.9 257.82 517.88 251.93 510.19 246.55 502.84 241.78 495.84 237.52 489.24 233.96 482.97 231.17 477.01 228.14 468.71 226.23 453.37 226.87 446.01 227.81 438.86 229.32 424.1 229.12 416.3 228.13 411.05 226.7 405.56 224.85 399.81 222.31 394.06 219.5 388.05 216.58 381.77 213.42 375.49 210.59 369.11 208.27 362.65 206.29 356.2 205.15 349.71 204.93 343.21 205.4 336.76 206.88 330.33 209.34 324 212.46 317.74 216.43 311.63 221.09 305.71 226.13 299.93 231.6 294.41 237.36 289.2 243.1 284.2 248.87 279.57 254.57 275.37 262.52 269.67 276.51 261.06 282.54 258.17 292.38 254.73 305.99 251.83 310.82 250.74 315.81 248.74 327.32 242.26 333.88 237.6 338.37 233.77 343.19 229.64 348.3 225.32 353.43 220.66 358.83 216.04 364.51 211.64 370.18 207.34 376.11 203.57 382.29 200.52" stroke-dasharray="6 11" transform="rotate(36.36, 400, 400)" opacity="0.39"></path><path d="M389.91 211.23C395.84 208.82 401.95 207.35 408.24 206.85 414.55 207.05 421.05 208.23 427.74 210.35 441.26 216.42 455.67 225.35 470.81 236.1 486.07 247.18 501.74 258.51 517.08 269.41 531.42 278.92 544.02 287.57 553.62 295.45 560.28 301.91 562.69 308.14 560.56 314.51 556.19 320.19 549.39 326.6 542.22 333.95 538.38 341.14 538.44 349.51 543.73 359.09 548.7 363.87 554.82 368.95 561.84 374.34 569.61 379.72 577.55 385.41 585.18 391.4 592.28 397.4 598.03 403.57 602.13 409.9 604.72 416.24 605.3 422.75 603.88 429.42 596.22 442.83 582.54 456.94 565.57 471.54 548.21 486.19 532.22 501.12 519.08 515.79 509.79 529.81 503.63 542.69 499.68 553.5 497.32 565.15 489.56 567.54 480.95 559.34 473.96 553.25 465.08 547.34 454.67 543.18 449.38 542.63 443.77 542.94 437.89 544.18 432 546.61 425.86 549.94 419.5 554.07 413.14 559.09 406.72 564.43 400.26 569.84 393.8 575.44 387.29 580.61 380.73 585.12 367.56 592.53 354.11 595.34 340.43 593.2 326.65 587.27 312.71 577.07 298.96 563.85 285.62 549.01 273.11 533.17 262.13 517.4 252.63 502.27 245.47 488.06 241.08 474.96 238.37 462.97 237.98 451.75 239.33 441.01 240.22 430.87 240.95 420.64 240.67 410.08 239.52 404.84 237.95 399.47 236 393.93 233.44 388.41 230.64 382.71 227.75 376.85 224.63 370.98 221.82 365.09 219.47 359.21 217.41 353.33 216.1 347.49 215.62 341.7 216.56 330.24 221.21 319.25 229.02 309.11 238.51 299.46 249.55 291.03 261.11 284.18 271.91 278.01 282.06 273.52 291.35 270.71 299.05 268.09 306.2 266.52 313.16 265.53 319.2 263.31 325.76 260.53 333.14 256.72 340.27 250.61 348.54 243.24 358 235.05 362.71 230.52 367.73 226.07 373.04 221.84 378.35 217.75 383.97 214.16 389.9 211.23" stroke-dasharray="6 10" transform="rotate(40.400000000000006, 400, 400)" opacity="0.43"></path><path d="M399.44 221.94C410.81 217.85 423.01 217.32 435.89 220.28 448.86 225.55 462.51 233.57 476.52 243.48 490.34 253.98 504.01 265.03 516.74 275.97 528.21 285.93 537.55 295.26 543.82 303.91 547.6 311.3 547.75 318.35 544.39 325.33 539.9 331.55 534.08 338.21 528.7 345.56 526.79 352.62 528.54 360.66 534.77 369.77 545.94 378.8 559.87 388.99 574.01 400.39 586.31 411.79 592.93 423.91 592.79 436.59 586.99 449.31 575.53 462.57 560.53 476.1 544.39 489.48 528.57 502.8 514.58 515.48 503.45 527.34 495 537.76 488.76 545.99 483.4 554.17 474.02 552.77 466.55 544.91 460.81 539.74 453.37 535.02 444.35 532.01 435.15 532.74 424.6 536.57 412.86 543.35 401.12 553.22 388.84 563.33 376.21 572.05 363.6 579.39 350.62 582.89 337.48 582.14 324.48 578.13 311.52 570.14 299.05 559.12 287.26 546.28 276.57 531.99 267.58 517.24 260.05 502.58 254.74 488.38 251.89 474.97 250.27 462.34 250.48 450.42 251.93 439.1 252.6 428.31 252.89 417.7 252.14 407.11 248.87 396.67 244.26 385.96 238.92 375 232.77 364.04 228.32 353.33 226.45 343.09 226.69 332.96 230.36 323.52 237.06 315.06 245.55 306.96 255.84 300.09 267.02 294.67 277.93 289.65 288.59 286.03 298.63 283.72 307.4 281.25 315.58 279.45 323.39 277.88 330.23 274.98 337.26 271.42 344.79 266.89 351.92 260.34 359.94 252.79 368.99 244.69 377.93 235.84 388.05 227.9 399.43 221.94" stroke-dasharray="8 7" transform="rotate(44.44, 400, 400)" opacity="0.47"></path><path d="M409.07 232.65C419.93 228.68 431.46 227.91 443.46 230.29 455.46 234.77 467.8 241.86 480.07 250.86 491.96 260.61 503.19 271.17 513.08 281.9 521.67 292.02 528.01 301.76 531.49 310.98 533.1 319.16 531.81 326.98 528.01 334.61 523.99 341.5 519.49 348.6 515.98 356.14 515.87 363.35 519.05 371.3 525.97 380.11 536.89 388.82 549.89 398.54 562.84 409.32 574.22 420.11 580.73 431.49 581.45 443.27 577.32 455.05 567.98 467.14 555.05 479.22 540.49 491.04 525.41 502.46 511.25 512.97 499 522.6 488.81 530.64 480.59 536.53 472.12 541.81 459.38 537.87 451.96 530.74 446.72 526.55 440.11 522.98 432.09 521.02 423.97 522.35 414.5 526.28 403.78 532.64 393.05 541.66 381.66 550.87 369.87 558.97 358.15 566.13 346.12 570.11 334.07 570.48 322.31 568.16 310.83 562.22 300.08 553.36 290.12 542.65 281.43 530.2 274.49 516.89 268.81 503.26 265.13 489.64 263.54 476.47 262.71 463.73 263.25 451.55 264.59 439.99 264.92 428.82 264.73 418.01 263.5 407.48 260 397.08 255.34 386.73 250.09 376.48 244.11 366.22 239.63 356.51 237.42 347.5 237.02 338.56 239.74 330.46 245.3 323.39 252.66 316.55 261.98 310.87 272.46 306.46 283.12 302.2 293.9 299.05 304.36 296.85 313.93 294.23 323.01 291.97 331.66 289.71 339.43 286.09 347.18 281.81 355.14 276.65 362.64 269.79 370.76 262.17 379.67 254.24 388.44 245.79 398.21 238.29 409.07 232.65" stroke-dasharray="8 6" transform="rotate(48.48, 400, 400)" opacity="0.51"></path><path d="M416.98 243.37C427.25 239.53 437.88 238.55 448.67 240.4 459.39 244.11 470.05 250.26 480.25 258.28 489.97 267.16 498.68 277.02 505.83 287.3 511.85 297.29 515.72 307.15 517.14 316.67 517.34 325.43 515.4 333.86 511.84 342.04 508.73 349.58 505.78 357.18 504.11 364.99 505.61 372.48 509.94 380.47 517.31 389.08 527.85 397.59 539.88 406.89 551.67 417.02 562.13 427.14 568.46 437.65 569.88 448.34 567.21 458.98 559.86 469.67 549.03 480.08 536.29 490.17 522.43 499.61 508.72 507.94 496.06 515.45 484.8 521.36 475.12 525.27 467.24 528 460.53 528.57 454.53 527 449.55 524.8 444.45 521.22 438.83 516.9 433.47 513.71 427.14 511.23 419.73 510.21 412.29 512.03 403.7 515.99 393.97 521.92 384.24 530.12 373.92 538.47 363.26 545.91 352.72 552.76 342.01 557.02 331.46 558.28 321.27 557.37 311.57 553.27 302.78 546.45 294.76 537.89 288.05 527.45 283 515.86 278.95 503.68 276.59 491.14 275.91 478.71 275.58 466.41 276.18 454.48 277.23 443.06 277.13 431.9 276.42 421.14 274.75 410.82 271.05 400.61 266.39 390.67 261.26 381.08 255.47 371.49 251.02 362.66 248.55 354.67 247.58 346.72 249.39 339.69 253.82 333.68 259.97 327.76 268.13 322.89 277.65 319.07 287.68 315.19 298.18 312.14 308.67 309.74 318.65 306.75 328.32 303.9 337.63 300.88 346.23 296.58 354.69 291.65 363.15 286 371.19 278.95 379.58 271.38 388.47 263.7 397.22 255.71 406.7 248.67 416.98 243.37" stroke-dasharray="6 1" transform="rotate(52.52, 400, 400)" opacity="0.54"></path><path d="M421.65 254.08C431.23 250.4 440.81 249.25 450.19 250.6 459.46 253.58 468.32 258.8 476.39 265.8 484.01 273.72 490.42 282.72 495.24 292.32 499.22 301.9 501.32 311.58 501.47 321.1 501.01 330.11 499.11 338.9 496.31 347.45 494.42 355.49 493.08 363.49 493.12 371.54 495.97 379.31 501.18 387.37 508.76 395.8 518.79 404.15 529.84 413.03 540.5 422.45 550.05 431.87 556.12 441.4 558.09 450.87 556.67 460.28 551.14 469.46 542.34 478.14 531.57 486.49 519.28 494.01 506.55 500.35 494.19 506 482.57 510.12 472.06 512.48 462.85 514.01 454.69 513.79 447.35 511.93 440.97 509.86 434.82 506.85 428.57 503.45 422.68 501.25 416.25 499.78 409.13 499.57 402.04 501.77 394.1 505.71 385.31 511.21 376.52 518.61 367.34 526.11 358.01 532.88 348.8 539.33 339.62 543.69 330.79 545.6 322.33 545.81 314.51 543.3 307.67 538.34 301.5 531.81 296.58 523.42 293.14 513.72 290.36 503.28 288.97 492.2 288.84 480.93 288.7 469.57 289.14 458.33 289.76 447.47 289.17 436.71 287.95 426.33 285.87 416.42 282.03 406.59 277.4 397.15 272.43 388.2 266.88 379.25 262.5 371.17 259.83 364 258.38 356.82 259.36 350.57 262.7 345.26 267.61 339.93 274.49 335.5 282.84 331.9 291.92 328.09 301.73 324.86 311.82 322.03 321.76 318.54 331.61 315.03 341.21 311.28 350.35 306.38 359.31 300.94 368.16 294.94 376.67 287.84 385.31 280.42 394.16 273.09 402.91 265.59 412.06 259.04 421.65 254.08" stroke-dasharray="7 4" transform="rotate(56.56, 400, 400)" opacity="0.58"></path><path d="M422.19 264.8C430.99 261.29 439.43 260 447.37 260.9 455.2 263.2 462.33 267.52 468.5 273.5 474.3 280.38 478.86 288.4 481.96 297.12 484.54 306.04 485.61 315.23 485.25 324.44 484.78 333.39 483.45 342.22 481.78 350.87 481.24 359.16 481.45 367.37 483 375.52 486.91 383.44 492.72 391.49 500.3 399.69 509.71 407.81 519.76 416.22 529.33 424.89 537.98 433.55 543.74 442.07 546.09 450.29 545.71 458.43 541.79 466.13 534.92 473.15 526.16 479.89 515.66 485.71 504.32 490.35 492.84 494.48 481.54 497.24 470.87 498.51 461.01 499.28 451.95 498.69 443.64 496.89 436.11 495.19 429 492.9 422.08 490.46 415.53 489.19 408.82 488.62 401.79 489.09 394.83 491.59 387.39 495.44 379.45 500.5 371.5 507.13 363.46 513.81 355.5 519.89 347.65 525.85 340.04 530.15 332.94 532.48 326.15 533.55 320.09 532.34 315.02 528.99 310.42 524.33 306.96 517.89 304.73 510.11 302.86 501.55 302.04 492.17 302.11 482.37 301.9 472.31 302 462.17 302.08 452.2 300.98 442.24 299.28 432.54 296.84 423.27 292.91 414.03 288.37 405.2 283.6 396.88 278.32 388.57 274.07 381.13 271.27 374.58 269.56 365.12 278.47 350.17 288.28 344.35 296.15 340.37 304.94 336.78 314.23 333.41 323.66 329.37 333.21 325.22 342.68 320.82 351.93 315.46 361.04 309.66 369.97 303.48 378.7 296.47 387.4 289.32 396.07 282.4 404.67 275.44 413.39 269.39 422.19 264.8" stroke-dasharray="9 4" transform="rotate(60.599999999999994, 400, 400)" opacity="0.62"></path><path d="M418.51 275.51C426.44 272.21 433.76 270.82 440.38 271.31 446.9 273 452.57 276.46 457.23 281.43 461.66 287.24 464.94 294.18 467 301.9 468.83 309.93 469.55 318.38 469.33 326.99 469.33 335.53 468.93 344.08 468.55 352.51 469.35 360.74 470.95 368.88 473.72 376.91 478.4 384.79 484.53 392.66 491.91 400.5 500.61 408.3 509.66 416.16 518.18 424.03 525.94 431.9 531.31 439.39 533.91 446.4 534.35 453.34 531.82 459.68 526.71 465.25 519.88 470.61 511.29 475.03 501.61 478.36 491.46 481.36 481.07 483.19 470.87 483.82 461.06 484.22 451.73 483.6 443 482.14 434.8 480.98 427.05 479.47 419.65 477.97 412.57 477.56 405.59 477.75 398.61 478.78 391.73 481.46 384.69 485.18 377.5 489.78 370.31 495.68 363.32 501.56 356.64 506.95 346.95 514.42 330.68 520.57 324.73 518.46 321.35 515.41 318.92 510.74 317.47 504.79 316.1 498.11 315.49 490.51 315.46 482.33 314.98 473.83 314.61 465.05 314.11 456.26 312.51 447.39 310.39 438.65 307.67 430.2 303.71 421.76 299.3 413.65 294.77 405.98 289.8 398.32 285.72 391.45 282.87 385.34 280.56 376.48 286.45 361.91 294.23 355.81 300.73 351.55 308.24 347.51 316.41 343.58 324.9 339.04 333.71 334.37 342.58 329.47 351.45 323.81 360.27 317.84 368.92 311.64 377.49 304.86 385.94 298.09 394.21 291.64 402.45 285.26 410.58 279.74 418.51 275.51" stroke-dasharray="7 9" transform="rotate(64.64, 400, 400)" opacity="0.66"></path><path d="M411.3 286.22C421.46 282.42 437.84 284.31 443.77 289.64 447.31 294.4 449.89 300.22 451.54 306.83 453.19 313.81 454.1 321.31 454.45 329.07 455.23 336.9 455.92 344.85 456.82 352.75 458.81 360.59 461.54 368.37 465.21 376.01 470.36 383.58 476.54 391.06 483.55 398.39 491.47 405.71 499.51 412.93 507 419.97 513.9 427 518.85 433.52 521.56 439.43 521.94 447.88 509.29 460.81 498.06 464.93 489.54 467.18 480.48 468.48 471.3 468.86 462.15 469.21 453.2 468.84 444.63 467.9 436.35 467.36 428.43 466.65 420.91 466.01 413.62 466.34 406.56 467.16 399.74 468.62 392.99 471.39 386.34 474.92 379.84 479.07 373.33 484.25 367.26 489.37 361.67 494.07 347.24 504.16 332.93 503.51 330.92 497.62 329.7 492.69 328.99 486.82 328.64 480.3 327.74 473.44 326.84 466.16 325.77 458.7 323.73 451.13 321.25 443.52 318.33 436.05 314.42 428.56 310.2 421.27 305.94 414.29 301.32 407.31 297.46 400.95 294.63 395.21 291.89 386.8 295.12 372.27 300.92 365.77 305.99 361.22 312.08 356.77 318.9 352.36 326.14 347.46 333.83 342.42 341.73 337.22 349.76 331.45 357.84 325.49 365.82 319.45 373.82 313.03 381.67 306.74 389.28 300.83 396.9 295.05 404.28 290.07 411.3 286.22" stroke-dasharray="2 9" transform="rotate(68.68, 400, 400)" opacity="0.70"></path><path d="M401.94 296.94C414.14 292 423.43 292.67 429.65 298.19 435.81 306.28 439.37 317.81 441.28 331.06 445.15 344.92 450.08 359.38 457.41 373.38 468.98 387.33 482.74 400.85 495.83 413.25 507.11 425.64 511.17 435.6 507.83 442.72 499.83 449.55 486.68 453.31 471.34 454.13 455.33 455.37 439.45 455.11 424.91 454.62 410.85 457.33 397.76 461.92 386.01 468.36 374.27 477.98 364.78 486.21 357.81 491.35 350.91 495.13 346.55 494.04 344.52 488.61 341.57 481.29 339.38 470.83 336.98 458.8 331.39 446.27 324.47 433.22 317.11 420.69 308.57 408.16 303.52 397.27 302.92 387.89 305.03 377.98 311.96 368.69 322.25 359.65 334.25 349.12 347.98 338.05 361.83 326.95 376.01 314.98 389.73 304.31 401.94 296.94" stroke-dasharray="1 11" transform="rotate(72.72, 400, 400)" opacity="0.73"></path><path d="M392.2 307.65C402.64 303.08 410.7 303.09 416.44 307.13 422.38 313.23 426.71 322.42 430.27 333.36 435.62 345.04 442.07 357.54 450.22 369.79 461.24 382.14 473.46 394.06 484.66 404.77 494.5 415.47 498.74 423.84 497.17 429.71 492.07 435.49 482.4 438.86 470.26 440.08 457.07 441.97 443.28 442.93 430.24 443.81 417.36 447.21 405.36 451.88 394.86 457.64 384.35 465.81 376.16 472.76 370.26 477.31 362.18 481.23 352.63 469.32 347.67 456.08 341.8 446.21 335.06 435.36 328.28 424.34 320.56 413.32 315.67 403.16 314.33 393.89 314.86 384.22 319.39 374.76 326.94 365.44 335.98 355.11 346.89 344.49 358.3 334.19 370.13 323.49 381.77 314.13 392.2 307.65" stroke-dasharray="6 11" transform="rotate(76.76, 400, 400)" opacity="0.77"></path><path d="M383.95 318.36C392.72 314.23 399.9 313.75 405.58 316.49 411.55 320.8 416.73 327.75 421.66 336.34 428 345.66 435.25 355.89 443.51 366.11 453.57 376.5 464.11 386.6 473.49 395.65 483.96 408.24 479.72 423.62 467.47 427.12 457.41 429.68 446.3 431.66 435.36 433.57 424.35 437.35 413.89 441.88 404.68 446.93 395.46 453.72 388.22 459.41 382.85 463.25 375.14 467.24 363.86 460.19 357.81 450.41 351.91 442.95 345.56 434.21 339.45 424.76 332.62 415.3 328.08 406.05 326.27 397.19 325.67 388.06 328.22 378.89 333.33 369.82 339.58 360.16 347.65 350.41 356.52 341.21 365.77 331.94 375.19 323.93 383.95 318.36" stroke-dasharray="9 1" transform="rotate(80.80000000000001, 400, 400)" opacity="0.81"></path><path d="M378.76 329.08C385.97 325.45 392.4 324.63 398.07 326.31 404.01 329.09 409.73 334.01 415.44 340.36 422.12 347.31 429.43 355.19 437.18 363.27 445.93 371.51 454.7 379.67 462.32 387.11 471.19 397.55 470.64 411.41 462.54 415.57 455.53 418.62 447.28 421.32 438.73 423.88 430.03 427.73 421.44 431.93 413.6 436.21 405.76 441.69 399.33 446.18 394.23 449.24 386.67 452.83 373.99 448.97 367.35 441.97 361.72 436.53 355.96 429.72 350.62 421.88 344.77 414.04 340.71 405.93 338.74 397.87 337.43 389.67 338.51 381.28 341.65 372.99 345.52 364.43 351.04 355.93 357.52 348.09 364.28 340.34 371.55 333.72 378.76 329.08" stroke-dasharray="10 6" transform="rotate(84.84, 400, 400)" opacity="0.85"></path><path d="M377.61 339.79C389.11 334.48 400.46 337.4 411.41 345.69 424.49 355.65 439.2 368.49 451.15 380.29 461.45 392.08 462.16 400.43 455.27 405.65 445.94 412.62 432.67 419.44 419.94 425.5 407.21 434.56 397.24 439.2 389.69 438.09 380.06 436.35 370.13 428.54 361.79 416.09 352.11 403.65 348.83 389.16 351.91 375.24 356.53 361.03 366.11 347.73 377.61 339.79" stroke-dasharray="6 3" transform="rotate(88.88, 400, 400)" opacity="0.89"></path><path d="M380.73 350.5C389.42 346.14 399.29 347.39 409.11 352.54 419.87 358.64 431.24 367.3 439.98 376.08 447.81 384.87 449.38 392.09 445.68 397.46 440.66 403.86 432.08 409.97 422.48 414.79 412.87 421.27 404.07 424.42 396.65 423.61 388.14 422.7 379.64 417.39 372.96 408.17 365.49 398.94 362.49 387.7 363.95 376.92 366 366.22 372.03 356.38 380.73 350.5" stroke-dasharray="9 8" transform="rotate(92.92, 400, 400)" opacity="0.92"></path><path d="M387.51 361.22C399.3 355.72 417.42 363.35 428.81 375.06 438.62 386.75 433.48 398.2 420.73 404.07 407.97 412.86 392.96 411.29 384.13 399.15 373.88 387.01 375.72 369.44 387.51 361.22" stroke-dasharray="9 5" transform="rotate(96.96, 400, 400)" opacity="0.96"></path></g></svg>