<?xml version="1.0" encoding="utf-8"?>
<!-- Generator: Adobe Illustrator 27.9.0, SVG Export Plug-In . SVG Version: 6.00 Build 0)  -->
<svg version="1.1" id="Layer_1" xmlns="http://www.w3.org/2000/svg" xmlns:xlink="http://www.w3.org/1999/xlink" x="0px" y="0px"
	 viewBox="0 0 1440 320" style="enable-background:new 0 0 1440 320;" xml:space="preserve">
<style type="text/css">
	.st0{fill:#0BBEAD;}
</style>
<path class="st0" d="M1440,140l-40,5.3c-40,5.7-120,15.7-200-16C1120,97,1040,23,960,6.7C880-9,800,33,720,70.7
	C640,108,560,140,480,124S320,44,240,38.7C160,33,80,87,40,113.3L0,140L0-84l40,0c40,0,120,0,200,0c80,0,160,0,240,0
	c80,0,160,0,240,0c80,0,160,0,240,0c80,0,160,0,240,0c80,0,160,0,200,0l40,0L1440,140z"/>
</svg>
