<?xml version="1.0" encoding="utf-8"?>
<!-- Generator: Adobe Illustrator 27.9.0, SVG Export Plug-In . SVG Version: 6.00 Build 0)  -->
<svg version="1.1" xmlns="http://www.w3.org/2000/svg" xmlns:xlink="http://www.w3.org/1999/xlink" x="0px" y="0px"
	 viewBox="0 0 1440 326.3" style="enable-background:new 0 0 1440 326.3;" xml:space="preserve">
<style type="text/css">
	.st0{display:none;}
	.st1{display:inline;fill:#0BBEAD;}
	.st2{fill:#FFFFFF;stroke:#000000;stroke-miterlimit:10;}
	.st3{fill:url(#SVGID_1_);}
</style>
<g id="Layer_1" class="st0">
	<path class="st1" d="M0,96l40-5.3c40-5.7,120-15.7,200,16C320,139,400,213,480,229.3c80,15.7,160-26.3,240-64
		C800,128,880,96,960,112s160,80,240,85.3c80,5.7,160-48.3,200-74.6l40-26.7v224h-40c-40,0-120,0-200,0s-160,0-240,0s-160,0-240,0
		s-160,0-240,0s-160,0-240,0s-160,0-200,0H0V96z"/>
</g>
<g id="Layer_2">
	<path class="st2" d="M0,96"/>
	<linearGradient id="SVGID_1_" gradientUnits="userSpaceOnUse" x1="718.0952" y1="22.7392" x2="725.0784" y2="375.3932">
		<stop  offset="0" style="stop-color:#0BBEAD"/>
		<stop  offset="1" style="stop-color:#0BBEAD;stop-opacity:0"/>
	</linearGradient>
	<path class="st3" d="M1440,226c-1.9,1.6-61.9,27.9-61.9,27.9c-37.3,16.7-75.4,27.5-75.4,27.5c-65.1,18.7-108.2,14.1-119.1,12.4
		c-2.1-0.3-4.2-0.6-6.3-0.9c-38.4-4.6-97.5-24.4-97.5-24.4c-51.6-17.4-85.2-25.2-85.2-25.2c-68.6-18.1-151.1-2.6-151.1-2.6
		c-47.5,7.2-135.2,36.3-135.2,36.3c-42.3,14.6-81.1,24.9-103.8,30.5c-20.3,4.9-41.2,8.4-62.6,10.1c-41.5,3.3-66.6-1-76-3.2
		c-2.9-0.7-5.9-1.3-8.8-1.9c-32.3-6.5-97-33.7-97-33.7c-71.3-30-103.9-41-103.9-41c-55.5-17-108.4-19.3-119.7-19.5
		c-1.5,0-3.1-0.1-4.6-0.2C99.4,216.8,0,226,0,226V11.9c0,0,99.4-9.2,131.8-7.6c1.5,0.1,3.1,0.1,4.6,0.2
		c11.4,0.3,64.2,2.5,119.7,19.5c0,0,32.6,11,103.9,41c0,0,64.8,27.2,97,33.7c3,0.6,5.9,1.3,8.8,1.9c9.4,2.2,34.5,6.5,76,3.2
		c21.4-1.7,42.4-5.2,62.6-10.1c22.7-5.5,61.5-15.8,103.8-30.5c0,0,87.7-29.2,135.2-36.3c0,0,82.5-15.6,151.1,2.6
		c0,0,33.6,7.8,85.2,25.2c0,0,59.1,19.8,97.5,24.4c2.1,0.3,4.2,0.5,6.3,0.9c10.8,1.7,54,6.2,119.1-12.4c0,0,38.2-10.8,75.4-27.5
		c0,0,60-26.3,61.9-27.9V226z"/>
</g>
</svg>
