<?xml version="1.0" encoding="UTF-8"?>
<svg id="Layer_2" data-name="Layer 2" xmlns="http://www.w3.org/2000/svg" xmlns:xlink="http://www.w3.org/1999/xlink" viewBox="0 0 1440 315.98">
  <defs>
    <style>
      .cls-1 {
        fill: url(#linear-gradient);
        stroke-width: 0px;
      }
    </style>
    <linearGradient id="linear-gradient" x1="718.1" y1="18.72" x2="725.08" y2="371.37" gradientUnits="userSpaceOnUse">
      <stop offset="0" stop-color="#0bbead"/>
      <stop offset="1" stop-color="#0bbead" stop-opacity="0"/>
    </linearGradient>
  </defs>
  <path class="cls-1" d="m1440,221.99c-1.91,1.57-61.92,27.9-61.92,27.9-37.26,16.69-75.43,27.53-75.43,27.53-65.11,18.66-108.23,14.09-119.07,12.43-2.1-.32-4.21-.61-6.33-.86-38.4-4.61-97.45-24.4-97.45-24.4-51.63-17.37-85.19-25.17-85.19-25.17-68.63-18.13-151.09-2.56-151.09-2.56-47.53,7.16-135.19,36.34-135.19,36.34-42.27,14.64-81.09,24.91-103.82,30.45-20.26,4.94-41.25,8.43-62.62,10.14-41.48,3.33-66.58-.98-75.95-3.15-2.93-.68-5.87-1.33-8.84-1.93-32.28-6.51-97.05-33.66-97.05-33.66-71.29-29.97-103.94-40.99-103.94-40.99-55.48-17.04-108.35-19.26-119.72-19.54-1.54-.04-3.06-.11-4.6-.19-32.36-1.59-131.78,7.65-131.78,7.65V7.83S99.42-1.41,131.78.18c1.53.08,3.06.15,4.6.19,11.37.28,64.23,2.5,119.72,19.54,0,0,32.65,11.02,103.94,40.99,0,0,64.76,27.15,97.05,33.66,2.97.6,5.91,1.25,8.84,1.93,9.37,2.17,34.47,6.48,75.95,3.15,21.38-1.71,42.36-5.2,62.62-10.14,22.73-5.55,61.55-15.81,103.82-30.45,0,0,87.66-29.18,135.19-36.34,0,0,82.45-15.58,151.09,2.56,0,0,33.56,7.8,85.19,25.17,0,0,59.05,19.78,97.45,24.4,2.12.25,4.23.54,6.33.86,10.84,1.66,53.97,6.23,119.07-12.43,0,0,38.18-10.84,75.43-27.53,0,0,60.01-26.32,61.92-27.9v214.16Z"/>
</svg>