<?xml version="1.0" encoding="UTF-8"?>
<svg id="Layer_2" data-name="Layer 2" xmlns="http://www.w3.org/2000/svg" xmlns:xlink="http://www.w3.org/1999/xlink" viewBox="0 0 1440 462.68">
  <defs>
    <style>
      .cls-1 {
        fill: url(#linear-gradient);
        stroke-width: 0px;
      }
    </style>
    <linearGradient id="linear-gradient" x1="717.31" y1="32.73" x2="726.68" y2="505.94" gradientUnits="userSpaceOnUse">
      <stop offset="0" stop-color="#0bbead"/>
      <stop offset="1" stop-color="#0bbead" stop-opacity="0"/>
    </linearGradient>
  </defs>
  <path class="cls-1" d="m1440,326.05c-1.91,2.31-61.92,40.97-61.92,40.97-37.26,24.51-75.43,40.43-75.43,40.43-65.11,27.41-108.23,20.69-119.07,18.26-2.1-.47-4.21-.89-6.33-1.27-38.4-6.78-97.45-35.83-97.45-35.83-51.63-25.51-85.19-36.96-85.19-36.96-68.63-26.63-151.09-3.75-151.09-3.75-47.53,10.52-135.19,53.37-135.19,53.37-42.27,21.51-81.09,36.58-103.82,44.73-20.26,7.26-41.25,12.38-62.62,14.9-41.48,4.88-66.58-1.45-75.95-4.63-2.93-1-5.87-1.95-8.84-2.83-32.28-9.56-97.05-49.44-97.05-49.44-71.29-44.02-103.94-60.21-103.94-60.21-55.48-25.03-108.35-28.28-119.72-28.7-1.54-.06-3.06-.16-4.6-.27-32.36-2.34-131.78,11.23-131.78,11.23V11.51S99.42-2.07,131.78.27c1.53.11,3.06.22,4.6.27,11.37.42,64.23,3.67,119.72,28.7,0,0,32.65,16.18,103.94,60.21,0,0,64.76,39.88,97.05,49.44,2.97.88,5.91,1.84,8.84,2.83,9.37,3.18,34.47,9.51,75.95,4.63,21.38-2.52,42.36-7.63,62.62-14.9,22.73-8.15,61.55-23.22,103.82-44.73,0,0,87.66-42.85,135.19-53.37,0,0,82.45-22.88,151.09,3.75,0,0,33.56,11.45,85.19,36.96,0,0,59.05,29.06,97.45,35.83,2.12.37,4.23.79,6.33,1.27,10.84,2.43,53.97,9.16,119.07-18.26,0,0,38.18-15.92,75.43-40.43,0,0,60.01-38.66,61.92-40.97v314.54Z"/>
</svg>